<svg xmlns="http://www.w3.org/2000/svg" xmlns:xlink="http://www.w3.org/1999/xlink" width="500" zoomAndPan="magnify" viewBox="0 0 375 374.999991" height="500" preserveAspectRatio="xMidYMid meet" version="1.0"><rect x="-37.5" width="450" fill="#ffffff" y="-37.499999" height="449.999989" fill-opacity="1"/><rect x="-37.5" width="450" fill="#000000" y="-37.499999" height="449.999989" fill-opacity="1"/><path fill="#ffffff" d="M 154.304688 223.488281 C 154.226562 207.285156 154.082031 180.785156 154.019531 164.601562 C 153.9375 148.398438 166.054688 141.71875 179.886719 149.75 C 193.742188 157.777344 216.808594 170.917969 230.660156 178.925781 C 244.496094 186.957031 244.78125 200.195312 231.03125 208.367188 C 217.257812 216.542969 194.007812 229.902344 180.234375 238.078125 C 166.484375 246.25 154.386719 239.691406 154.304688 223.488281 Z M 154.304688 223.488281 " fill-opacity="1" fill-rule="nonzero"/><path fill="#8cc640" d="M 125.171875 181.949219 C 126.109375 124.945312 140.78125 98.257812 159.066406 85.367188 C 169.285156 79.585938 177.679688 78.5 185.527344 78.316406 C 191.308594 78.175781 196.867188 78.664062 202.21875 79.625 C 219.21875 81.789062 256.570312 93.027344 292.121094 125.84375 C 273.222656 77.582031 215.625 44.625 162.847656 52.308594 C 122.289062 58.191406 87.085938 91.433594 83.671875 163.949219 C 80.75 226.144531 108.332031 265.640625 129.460938 260.226562 C 127.191406 230.414062 124.824219 202.257812 125.171875 181.949219 Z M 125.171875 181.949219 " fill-opacity="1" fill-rule="nonzero"/><path fill="#f15b26" d="M 205.304688 251.867188 C 155.59375 279.78125 125.148438 280.578125 104.800781 271.28125 C 94.664062 265.355469 89.476562 258.671875 85.367188 251.992188 C 82.324219 247.066406 79.953125 242.042969 78.09375 236.914062 C 71.390625 221.140625 62.28125 183.214844 72.699219 135.976562 C 40.539062 176.617188 41.113281 242.980469 74.335938 284.683594 C 99.875 316.722656 146.316406 330.371094 210.660156 296.777344 C 265.867188 267.949219 286.074219 224.222656 270.730469 208.714844 C 246.167969 225.695312 223.039062 241.917969 205.304688 251.867188 Z M 205.304688 251.867188 " fill-opacity="1" fill-rule="nonzero"/><path fill="#29aae2" d="M 226.25 147.726562 C 274.9375 177.371094 290.570312 203.503906 292.429688 225.816406 C 292.246094 237.566406 288.933594 245.351562 285.15625 252.214844 C 282.355469 257.285156 279.128906 261.820312 275.59375 265.96875 C 265.132812 279.535156 236.546875 306.074219 190.246094 320.132812 C 241.429688 328.222656 298.988281 295.226562 319.050781 245.800781 C 334.457031 207.835938 323.585938 160.660156 262.761719 121.042969 C 210.578125 87.0625 162.5625 90.882812 156.554688 111.847656 C 183.402344 124.964844 208.882812 137.164062 226.25 147.726562 Z M 226.25 147.726562 " fill-opacity="1" fill-rule="nonzero"/></svg>