<svg xmlns="http://www.w3.org/2000/svg" xmlns:xlink="http://www.w3.org/1999/xlink" width="500" zoomAndPan="magnify" viewBox="0 0 375 374.999991" height="500" preserveAspectRatio="xMidYMid meet" version="1.0"><defs><g/></defs><rect x="-37.5" width="450" fill="#ffffff" y="-37.499999" height="449.999989" fill-opacity="1"/><rect x="-37.5" width="450" fill="#000000" y="-37.499999" height="449.999989" fill-opacity="1"/><path fill="#ffffff" d="M 273.800781 182.730469 C 273.78125 179.070312 273.75 173.078125 273.734375 169.421875 C 273.71875 165.761719 276.457031 164.25 279.582031 166.066406 C 282.710938 167.878906 287.925781 170.851562 291.054688 172.660156 C 294.183594 174.472656 294.246094 177.464844 291.140625 179.3125 C 288.027344 181.160156 282.773438 184.179688 279.660156 186.027344 C 276.554688 187.875 273.820312 186.390625 273.800781 182.730469 Z M 273.800781 182.730469 " fill-opacity="1" fill-rule="nonzero"/><path fill="#8cc640" d="M 267.214844 173.34375 C 267.429688 160.460938 270.742188 154.429688 274.875 151.515625 C 277.183594 150.210938 279.082031 149.964844 280.855469 149.921875 C 282.164062 149.890625 283.417969 150 284.628906 150.21875 C 288.46875 150.707031 296.910156 153.246094 304.945312 160.664062 C 300.675781 149.757812 287.65625 142.308594 275.730469 144.046875 C 266.566406 145.375 258.609375 152.886719 257.839844 169.273438 C 257.179688 183.332031 263.410156 192.257812 268.1875 191.03125 C 267.671875 184.296875 267.136719 177.933594 267.214844 173.34375 Z M 267.214844 173.34375 " fill-opacity="1" fill-rule="nonzero"/><path fill="#f15b26" d="M 285.324219 189.144531 C 274.089844 195.453125 267.210938 195.632812 262.613281 193.53125 C 260.324219 192.191406 259.148438 190.679688 258.222656 189.171875 C 257.535156 188.058594 256.996094 186.921875 256.578125 185.765625 C 255.0625 182.199219 253.003906 173.628906 255.359375 162.953125 C 248.089844 172.136719 248.21875 187.136719 255.726562 196.558594 C 261.5 203.800781 271.996094 206.882812 286.535156 199.292969 C 299.011719 192.777344 303.578125 182.898438 300.109375 179.390625 C 294.5625 183.230469 289.332031 186.894531 285.324219 189.144531 Z M 285.324219 189.144531 " fill-opacity="1" fill-rule="nonzero"/><path fill="#29aae2" d="M 290.058594 165.609375 C 301.0625 172.308594 304.59375 178.214844 305.015625 183.257812 C 304.972656 185.910156 304.226562 187.671875 303.371094 189.222656 C 302.738281 190.367188 302.007812 191.394531 301.210938 192.328125 C 298.847656 195.394531 292.386719 201.394531 281.921875 204.570312 C 293.488281 206.398438 306.496094 198.941406 311.03125 187.773438 C 314.511719 179.191406 312.054688 168.53125 298.308594 159.578125 C 286.515625 151.898438 275.667969 152.761719 274.308594 157.5 C 280.375 160.464844 286.132812 163.222656 290.058594 165.609375 Z M 290.058594 165.609375 " fill-opacity="1" fill-rule="nonzero"/><g fill="#ffffff" fill-opacity="1"><g transform="translate(58.977188, 176.57322)"><g><path d="M 20.109375 -10.75 L 31.40625 -28.96875 L 37.8125 -28.96875 L 36.40625 0 L 29.421875 0 L 30.28125 -16.171875 L 20.234375 0 L 16.390625 0 L 12.625 -16.21875 L 7.15625 0 L 0 0 L 9.84375 -28.96875 L 15.890625 -28.96875 Z M 20.109375 -10.75 "/></g></g></g><g fill="#ffffff" fill-opacity="1"><g transform="translate(97.903408, 176.57322)"><g><path d="M 12 0.53125 C 10.09375 0.53125 8.304688 0.113281 6.640625 -0.71875 C 4.972656 -1.5625 3.632812 -2.753906 2.625 -4.296875 C 1.613281 -5.847656 1.109375 -7.601562 1.109375 -9.5625 C 1.109375 -11.820312 1.664062 -13.910156 2.78125 -15.828125 C 3.90625 -17.742188 5.457031 -19.257812 7.4375 -20.375 C 9.425781 -21.488281 11.664062 -22.046875 14.15625 -22.046875 C 16.113281 -22.046875 17.925781 -21.617188 19.59375 -20.765625 C 21.257812 -19.910156 22.585938 -18.710938 23.578125 -17.171875 C 24.578125 -15.628906 25.078125 -13.878906 25.078125 -11.921875 C 25.078125 -9.628906 24.507812 -7.53125 23.375 -5.625 C 22.25 -3.71875 20.691406 -2.210938 18.703125 -1.109375 C 16.710938 -0.015625 14.476562 0.53125 12 0.53125 Z M 12.625 -5.625 C 13.78125 -5.625 14.773438 -5.898438 15.609375 -6.453125 C 16.453125 -7.003906 17.101562 -7.726562 17.5625 -8.625 C 18.019531 -9.519531 18.25 -10.453125 18.25 -11.421875 C 18.25 -12.660156 17.8125 -13.710938 16.9375 -14.578125 C 16.070312 -15.453125 14.953125 -15.890625 13.578125 -15.890625 C 12.441406 -15.890625 11.445312 -15.613281 10.59375 -15.0625 C 9.738281 -14.507812 9.085938 -13.785156 8.640625 -12.890625 C 8.203125 -11.992188 7.984375 -11.046875 7.984375 -10.046875 C 7.984375 -8.804688 8.414062 -7.757812 9.28125 -6.90625 C 10.15625 -6.050781 11.269531 -5.625 12.625 -5.625 Z M 12.625 -5.625 "/></g></g></g><g fill="#ffffff" fill-opacity="1"><g transform="translate(122.475224, 176.57322)"><g><path d="M 11.171875 -7.90625 L 18.75 -21.515625 L 26.15625 -21.515625 L 12.984375 0 L 6.828125 0 L 1.9375 -21.515625 L 8.765625 -21.515625 Z M 11.171875 -7.90625 "/></g></g></g><g fill="#ffffff" fill-opacity="1"><g transform="translate(145.185525, 176.57322)"><g><path d="M 7.453125 0 L 0.53125 0 L 4.71875 -21.515625 L 11.578125 -21.515625 Z M 12.328125 -24.828125 L 5.171875 -24.828125 L 6.25 -30.375 L 13.40625 -30.375 Z M 12.328125 -24.828125 "/></g></g></g><g fill="#ffffff" fill-opacity="1"><g transform="translate(155.733864, 176.57322)"><g><path d="M 13.6875 -22.046875 C 15.757812 -22.046875 17.59375 -21.597656 19.1875 -20.703125 C 20.789062 -19.804688 22.035156 -18.585938 22.921875 -17.046875 C 23.804688 -15.503906 24.25 -13.804688 24.25 -11.953125 C 24.25 -10.828125 24.097656 -9.753906 23.796875 -8.734375 L 7.78125 -8.734375 C 7.945312 -7.410156 8.414062 -6.394531 9.1875 -5.6875 C 9.957031 -4.988281 10.976562 -4.640625 12.25 -4.640625 C 13.207031 -4.640625 14.054688 -4.84375 14.796875 -5.25 C 15.546875 -5.664062 16.085938 -6.175781 16.421875 -6.78125 L 23.21875 -6.78125 C 22.332031 -4.6875 20.890625 -2.941406 18.890625 -1.546875 C 16.890625 -0.160156 14.507812 0.53125 11.75 0.53125 C 9.738281 0.53125 7.925781 0.101562 6.3125 -0.75 C 4.695312 -1.601562 3.425781 -2.796875 2.5 -4.328125 C 1.570312 -5.859375 1.109375 -7.585938 1.109375 -9.515625 C 1.109375 -11.691406 1.644531 -13.738281 2.71875 -15.65625 C 3.800781 -17.570312 5.300781 -19.113281 7.21875 -20.28125 C 9.132812 -21.457031 11.289062 -22.046875 13.6875 -22.046875 Z M 13.453125 -16.84375 C 12.234375 -16.84375 11.1875 -16.492188 10.3125 -15.796875 C 9.445312 -15.109375 8.796875 -14.1875 8.359375 -13.03125 L 17.796875 -13.03125 C 17.710938 -14.164062 17.296875 -15.082031 16.546875 -15.78125 C 15.804688 -16.488281 14.773438 -16.84375 13.453125 -16.84375 Z M 13.453125 -16.84375 "/></g></g></g><g fill="#ffffff" fill-opacity="1"><g transform="translate(179.561069, 176.57322)"><g><path d="M 24.203125 -28.96875 L 23 -22.625 L 12.90625 -22.625 L 11.796875 -16.84375 L 21.515625 -16.84375 L 20.359375 -10.796875 L 10.640625 -10.796875 L 8.5625 0 L 1.328125 0 L 6.875 -28.96875 Z M 24.203125 -28.96875 "/></g></g></g><g fill="#ffffff" fill-opacity="1"><g transform="translate(200.575304, 176.57322)"><g><path d="M 7.703125 0 L 0.78125 0 L 6.5 -29.796875 L 13.40625 -29.796875 Z M 7.703125 0 "/></g></g></g><g fill="#ffffff" fill-opacity="1"><g transform="translate(211.578683, 176.57322)"><g><path d="M 7.453125 0 L 0.53125 0 L 4.71875 -21.515625 L 11.578125 -21.515625 Z M 12.328125 -24.828125 L 5.171875 -24.828125 L 6.25 -30.375 L 13.40625 -30.375 Z M 12.328125 -24.828125 "/></g></g></g><g fill="#ffffff" fill-opacity="1"><g transform="translate(222.127022, 176.57322)"><g><path d="M 18.203125 -21.515625 L 26.234375 -21.515625 L 17.171875 -11.171875 L 22.59375 0 L 15.5625 0 L 12.5 -7.109375 L 6.625 0 L -1.453125 0 L 8.28125 -11.046875 L 3.265625 -21.515625 L 10.09375 -21.515625 L 12.875 -14.859375 Z M 18.203125 -21.515625 "/></g></g></g><g fill="#8dc641" fill-opacity="1"><g transform="translate(75.471592, 197.821921)"><g><path d="M 6.953125 -1.703125 L 7.84375 -6.8125 L 9.6875 -6.8125 L 8.28125 0 L 5.8125 0 L 4.859375 -3.71875 L 3.9375 0 L 1.484375 0 L 0.078125 -6.8125 L 1.921875 -6.8125 L 2.8125 -1.703125 L 4.0625 -6.8125 L 5.640625 -6.8125 Z M 6.953125 -1.703125 "/></g></g></g><g fill="#8dc641" fill-opacity="1"><g transform="translate(87.880062, 197.821921)"><g><path d="M 7.25 0 L 5.359375 0 L 4.875 -1.390625 L 2.453125 -1.390625 L 1.984375 0 L 0.078125 0 L 2.3125 -6.8125 L 5.015625 -6.8125 Z M 4.578125 -2.796875 L 3.671875 -5.59375 L 2.765625 -2.796875 Z M 4.578125 -2.796875 "/></g></g></g><g fill="#8dc641" fill-opacity="1"><g transform="translate(97.85573, 197.821921)"><g><path d="M 3.90625 0 L 2.109375 0 L 2.109375 -5.4375 L 0.140625 -5.4375 L 0.140625 -6.8125 L 5.859375 -6.8125 L 5.859375 -5.4375 L 3.90625 -5.4375 Z M 3.90625 0 "/></g></g></g><g fill="#8dc641" fill-opacity="1"><g transform="translate(106.50441, 197.821921)"><g><path d="M 3.859375 -1.296875 C 4.316406 -1.296875 4.679688 -1.382812 4.953125 -1.5625 C 5.222656 -1.738281 5.359375 -2 5.359375 -2.34375 L 7.1875 -2.34375 C 7.070312 -1.613281 6.71875 -1.03125 6.125 -0.59375 C 5.539062 -0.15625 4.785156 0.0625 3.859375 0.0625 C 2.671875 0.0625 1.75 -0.328125 1.09375 -1.109375 C 0.570312 -1.734375 0.3125 -2.476562 0.3125 -3.34375 C 0.3125 -4.257812 0.570312 -5.050781 1.09375 -5.71875 C 1.75 -6.53125 2.671875 -6.9375 3.859375 -6.9375 C 4.785156 -6.9375 5.539062 -6.71875 6.125 -6.28125 C 6.71875 -5.84375 7.070312 -5.257812 7.1875 -4.53125 L 5.359375 -4.53125 C 5.359375 -4.875 5.226562 -5.128906 4.96875 -5.296875 C 4.707031 -5.472656 4.351562 -5.5625 3.90625 -5.5625 C 3.375 -5.5625 2.941406 -5.347656 2.609375 -4.921875 C 2.273438 -4.503906 2.109375 -3.976562 2.109375 -3.34375 C 2.109375 -2.726562 2.265625 -2.234375 2.578125 -1.859375 C 2.898438 -1.484375 3.328125 -1.296875 3.859375 -1.296875 Z M 3.859375 -1.296875 "/></g></g></g><g fill="#8dc641" fill-opacity="1"><g transform="translate(116.643038, 197.821921)"><g><path d="M 2.34375 0 L 0.546875 0 L 0.546875 -6.8125 L 2.34375 -6.8125 L 2.34375 -3.984375 L 4.8125 -3.984375 L 4.8125 -6.8125 L 6.59375 -6.8125 L 6.59375 0 L 4.8125 0 L 4.8125 -2.578125 L 2.34375 -2.578125 Z M 2.34375 0 "/></g></g></g><g fill="#27aae2" fill-opacity="1"><g transform="translate(127.157926, 197.821921)"><g><path d="M 4.09375 0 L 2.5625 -5.328125 L 2.21875 0 L 0.4375 0 L 0.640625 -3.40625 C 0.722656 -4.789062 0.789062 -5.925781 0.84375 -6.8125 L 3.875 -6.8125 L 4.953125 -2.8125 L 6.015625 -6.8125 L 9.0625 -6.8125 C 9.101562 -5.925781 9.164062 -4.789062 9.25 -3.40625 L 9.46875 0 L 7.671875 0 L 7.328125 -5.328125 L 5.796875 0 Z M 4.09375 0 "/></g></g></g><g fill="#27aae2" fill-opacity="1"><g transform="translate(139.694441, 197.821921)"><g><path d="M 3.8125 0.0625 C 2.625 0.0625 1.710938 -0.328125 1.078125 -1.109375 C 0.566406 -1.734375 0.3125 -2.476562 0.3125 -3.34375 C 0.3125 -4.257812 0.566406 -5.050781 1.078125 -5.71875 C 1.710938 -6.53125 2.625 -6.9375 3.8125 -6.9375 C 5 -6.9375 5.914062 -6.53125 6.5625 -5.71875 C 7.070312 -5.0625 7.328125 -4.269531 7.328125 -3.34375 C 7.328125 -2.46875 7.070312 -1.722656 6.5625 -1.109375 C 5.914062 -0.328125 5 0.0625 3.8125 0.0625 Z M 2.5625 -1.859375 C 2.875 -1.484375 3.289062 -1.296875 3.8125 -1.296875 C 4.34375 -1.296875 4.757812 -1.484375 5.0625 -1.859375 C 5.375 -2.234375 5.53125 -2.726562 5.53125 -3.34375 C 5.53125 -3.988281 5.378906 -4.519531 5.078125 -4.9375 C 4.773438 -5.351562 4.351562 -5.5625 3.8125 -5.5625 C 3.28125 -5.5625 2.863281 -5.351562 2.5625 -4.9375 C 2.257812 -4.519531 2.109375 -3.988281 2.109375 -3.34375 C 2.109375 -2.726562 2.257812 -2.234375 2.5625 -1.859375 Z M 2.5625 -1.859375 "/></g></g></g><g fill="#27aae2" fill-opacity="1"><g transform="translate(149.972749, 197.821921)"><g><path d="M 0.546875 -6.8125 L 3.25 -6.8125 C 4.4375 -6.8125 5.347656 -6.4375 5.984375 -5.6875 C 6.484375 -5.070312 6.734375 -4.3125 6.734375 -3.40625 C 6.734375 -2.539062 6.484375 -1.796875 5.984375 -1.171875 C 5.328125 -0.390625 4.414062 0 3.25 0 L 0.546875 0 Z M 2.34375 -5.4375 L 2.34375 -1.375 L 3.40625 -1.375 C 3.90625 -1.375 4.285156 -1.554688 4.546875 -1.921875 C 4.816406 -2.285156 4.953125 -2.78125 4.953125 -3.40625 C 4.953125 -4.757812 4.4375 -5.4375 3.40625 -5.4375 Z M 2.34375 -5.4375 "/></g></g></g><g fill="#27aae2" fill-opacity="1"><g transform="translate(159.669045, 197.821921)"><g><path d="M 0.546875 -6.8125 L 5.6875 -6.8125 L 5.6875 -5.4375 L 2.34375 -5.4375 L 2.34375 -4.078125 L 4.875 -4.078125 L 4.875 -2.671875 L 2.34375 -2.671875 L 2.34375 -1.375 L 5.6875 -1.375 L 5.6875 0 L 0.546875 0 Z M 0.546875 -6.8125 "/></g></g></g><g fill="#27aae2" fill-opacity="1"><g transform="translate(168.364288, 197.821921)"><g><path d="M 6.453125 -4.40625 C 6.453125 -4.007812 6.347656 -3.613281 6.140625 -3.21875 C 5.929688 -2.832031 5.628906 -2.519531 5.234375 -2.28125 L 6.328125 0 L 4.34375 0 L 3.40625 -1.984375 L 2.34375 -1.984375 L 2.34375 0 L 0.546875 0 L 0.546875 -6.8125 L 3.71875 -6.8125 C 4.613281 -6.8125 5.289062 -6.578125 5.75 -6.109375 C 6.21875 -5.648438 6.453125 -5.082031 6.453125 -4.40625 Z M 2.34375 -3.34375 L 3.625 -3.34375 C 3.925781 -3.34375 4.175781 -3.4375 4.375 -3.625 C 4.570312 -3.8125 4.671875 -4.0625 4.671875 -4.375 C 4.671875 -4.695312 4.570312 -4.953125 4.375 -5.140625 C 4.175781 -5.335938 3.925781 -5.4375 3.625 -5.4375 L 2.34375 -5.4375 Z M 2.34375 -3.34375 "/></g></g></g><g fill="#27aae2" fill-opacity="1"><g transform="translate(177.711376, 197.821921)"><g><path d="M 2.34375 -4.140625 L 2.34375 0 L 0.546875 0 L 0.546875 -6.8125 L 2.5625 -6.8125 L 5.25 -2.765625 L 5.25 -6.8125 L 7.046875 -6.8125 L 7.046875 0 L 5.078125 0 Z M 2.34375 -4.140625 "/></g></g></g><g fill="#f15b27" fill-opacity="1"><g transform="translate(190.400942, 197.821921)"><g><path d="M 4.09375 0 L 2.5625 -5.328125 L 2.21875 0 L 0.4375 0 L 0.640625 -3.40625 C 0.722656 -4.789062 0.789062 -5.925781 0.84375 -6.8125 L 3.875 -6.8125 L 4.953125 -2.8125 L 6.015625 -6.8125 L 9.0625 -6.8125 C 9.101562 -5.925781 9.164062 -4.789062 9.25 -3.40625 L 9.46875 0 L 7.671875 0 L 7.328125 -5.328125 L 5.796875 0 Z M 4.09375 0 "/></g></g></g><g fill="#f15b27" fill-opacity="1"><g transform="translate(202.937458, 197.821921)"><g><path d="M 3.8125 0.0625 C 2.625 0.0625 1.710938 -0.328125 1.078125 -1.109375 C 0.566406 -1.734375 0.3125 -2.476562 0.3125 -3.34375 C 0.3125 -4.257812 0.566406 -5.050781 1.078125 -5.71875 C 1.710938 -6.53125 2.625 -6.9375 3.8125 -6.9375 C 5 -6.9375 5.914062 -6.53125 6.5625 -5.71875 C 7.070312 -5.0625 7.328125 -4.269531 7.328125 -3.34375 C 7.328125 -2.46875 7.070312 -1.722656 6.5625 -1.109375 C 5.914062 -0.328125 5 0.0625 3.8125 0.0625 Z M 2.5625 -1.859375 C 2.875 -1.484375 3.289062 -1.296875 3.8125 -1.296875 C 4.34375 -1.296875 4.757812 -1.484375 5.0625 -1.859375 C 5.375 -2.234375 5.53125 -2.726562 5.53125 -3.34375 C 5.53125 -3.988281 5.378906 -4.519531 5.078125 -4.9375 C 4.773438 -5.351562 4.351562 -5.5625 3.8125 -5.5625 C 3.28125 -5.5625 2.863281 -5.351562 2.5625 -4.9375 C 2.257812 -4.519531 2.109375 -3.988281 2.109375 -3.34375 C 2.109375 -2.726562 2.257812 -2.234375 2.5625 -1.859375 Z M 2.5625 -1.859375 "/></g></g></g><g fill="#f15b27" fill-opacity="1"><g transform="translate(213.215766, 197.821921)"><g><path d="M 2.390625 0 L 0.078125 -6.8125 L 2.03125 -6.8125 L 3.734375 -1.46875 L 5.4375 -6.8125 L 7.390625 -6.8125 L 5.09375 0 Z M 2.390625 0 "/></g></g></g><g fill="#f15b27" fill-opacity="1"><g transform="translate(223.331113, 197.821921)"><g><path d="M 0.5625 -6.8125 L 2.34375 -6.8125 L 2.34375 0 L 0.5625 0 Z M 0.5625 -6.8125 "/></g></g></g><g fill="#f15b27" fill-opacity="1"><g transform="translate(228.88348, 197.821921)"><g><path d="M 0.546875 -6.8125 L 5.6875 -6.8125 L 5.6875 -5.4375 L 2.34375 -5.4375 L 2.34375 -4.078125 L 4.875 -4.078125 L 4.875 -2.671875 L 2.34375 -2.671875 L 2.34375 -1.375 L 5.6875 -1.375 L 5.6875 0 L 0.546875 0 Z M 0.546875 -6.8125 "/></g></g></g><g fill="#f15b27" fill-opacity="1"><g transform="translate(237.578723, 197.821921)"><g><path d="M 6.71875 -2.28125 C 6.71875 -1.53125 6.5 -0.960938 6.0625 -0.578125 C 5.5625 -0.148438 4.765625 0.0625 3.671875 0.0625 C 2.796875 0.0625 2.054688 -0.101562 1.453125 -0.4375 C 0.847656 -0.769531 0.488281 -1.296875 0.375 -2.015625 L 2.4375 -2.015625 C 2.488281 -1.535156 2.898438 -1.296875 3.671875 -1.296875 C 4.148438 -1.296875 4.476562 -1.347656 4.65625 -1.453125 C 4.832031 -1.554688 4.921875 -1.734375 4.921875 -1.984375 C 4.921875 -2.054688 4.894531 -2.125 4.84375 -2.1875 C 4.789062 -2.25 4.710938 -2.300781 4.609375 -2.34375 C 4.503906 -2.394531 4.398438 -2.4375 4.296875 -2.46875 C 4.191406 -2.507812 4.054688 -2.550781 3.890625 -2.59375 C 3.722656 -2.632812 3.582031 -2.664062 3.46875 -2.6875 C 3.363281 -2.707031 3.21875 -2.734375 3.03125 -2.765625 C 2.851562 -2.796875 2.726562 -2.820312 2.65625 -2.84375 C 2.25 -2.90625 1.882812 -3.015625 1.5625 -3.171875 C 0.78125 -3.503906 0.390625 -4.019531 0.390625 -4.71875 C 0.390625 -5.425781 0.601562 -5.960938 1.03125 -6.328125 C 1.507812 -6.734375 2.300781 -6.9375 3.40625 -6.9375 C 4.25 -6.9375 4.984375 -6.75 5.609375 -6.375 C 6.234375 -6 6.546875 -5.484375 6.546875 -4.828125 L 4.46875 -4.828125 C 4.425781 -5.316406 4.070312 -5.5625 3.40625 -5.5625 C 3.03125 -5.5625 2.726562 -5.507812 2.5 -5.40625 C 2.28125 -5.3125 2.171875 -5.195312 2.171875 -5.0625 C 2.171875 -4.96875 2.203125 -4.878906 2.265625 -4.796875 C 2.335938 -4.710938 2.445312 -4.632812 2.59375 -4.5625 C 2.738281 -4.5 2.867188 -4.441406 2.984375 -4.390625 C 3.109375 -4.347656 3.28125 -4.300781 3.5 -4.25 C 3.71875 -4.195312 3.878906 -4.160156 3.984375 -4.140625 C 4.085938 -4.128906 4.242188 -4.101562 4.453125 -4.0625 C 4.835938 -3.988281 5.203125 -3.882812 5.546875 -3.75 C 6.328125 -3.425781 6.71875 -2.9375 6.71875 -2.28125 Z M 6.71875 -2.28125 "/></g></g></g></svg>